<?xml version="1.0" encoding="UTF-8"?>
<svg id="Layer_1" data-name="Layer 1" xmlns="http://www.w3.org/2000/svg" viewBox="0 0 1024 1024">
  <defs>
    <style>
      .cls-1 {
        fill: #5921a4;
      }

      .cls-2 {
        fill: #fff;
      }

      .cls-3 {
        fill: #eca4fc;
      }

      .cls-4 {
        fill: #98c5fb;
      }

      .cls-5 {
        fill: #a7d6f9;
      }

      .cls-6 {
        fill: #c7d8fa;
      }
    </style>
  </defs>
  <rect class="cls-1" x="-1.23" y="-3.28" width="1025.23" height="1027.28" rx="301.47" ry="301.47"/>
  <g>
    <ellipse class="cls-3" cx="644.67" cy="305.84" rx="17.63" ry="18.05"/>
    <path class="cls-2" d="M735.83,498.5c-13.67-31.39-39.43-55.59-74.1-55.99-19.85-.23-37.47,9.66-47.69,26.17-10.2-1.51-19.1-2.53-28.85-1.56-34.87,3.47-61.92,30.47-66.73,66.13-5.45,40.44,10.69,80.84,38.24,107.98,2.5,2.47,8.07.83,9.41-1.12,1.48-2.18,2.35-6.64-.39-9.31-27.78-27.05-46.42-72.65-31.13-110.37,8.19,4.37,14.79,8.62,21.74,14.59-6.96,25.42,3.22,50.16,24.18,65.32,17.55,12.69,38.42,17.02,60.37,15.87,4.29-.23,10.66-.57,11.43-6.85,1.89-15.52,1.98-30.8-2.71-45.43-11.45-35.69-53.83-60.9-86.98-39.93l-24.43-14.56c15.85-27.95,45.86-35.97,75.08-29.57,4.86,43.29,50.88,57.01,87.24,45.98,10.89-3.3,20.68-8.33,30.65-13.73,4.78-2.58,6.87-8.59,4.67-13.62ZM568.71,542.86l37.84,29.88c2.29,1.81,4.92,2.24,7.14.27,1.59-1.4,2.6-5.2.1-7.35l-39.23-33.9c29.83-10.16,58.58,8.59,66.71,37.2,3.21,11.31,3.24,22.49,2.39,34.43-20.57.85-40.9-3.37-56.94-15.6-14.11-10.76-22.56-27.42-18.01-44.93ZM691.96,515.94c-25.4,4.11-57.06-5.41-62.66-33.48l50.48,12.03c3.42.82,6.82-.02,7.48-3.63.45-2.47-1.09-5.13-4.59-6.03l-51.73-13.25c6.1-10.06,17.36-14.7,28.93-15.86,31.06-3.11,56.69,18.88,68.72,46.2-11.94,7.34-23.55,11.91-36.63,14.02Z"/>
    <path class="cls-2" d="M483.84,507.2c-2.88-13.87-31.72,6.76-39.06,11.78-20.57-8.87-44.05-5.38-61.1,9.81-23.43,20.87-30.13,50.61-25.13,81.13.94,5.77,6.17,6.65,11.8,7.16,27.08,2.47,52.39-6.13,70.42-25.86,3.92-.28,3.79-3.96,5.47-6.35,11.36-16.23,15.2-36.57,7.75-55.37,11.55-12.48,32.06-11.64,29.85-22.3ZM425.5,587.21c-15.88,14.48-37.36,19.64-58.62,16.68-.7-13.25-.9-25.59,2.82-37.86,8.16-26.89,36.55-46.24,63.19-36.65l-34.96,36.54c-2.04,2.12-.86,6,.75,7.36,1.89,1.6,5.12,1.42,7-.87l36.64-33.7c4.33,18.49-2.81,36.5-16.82,48.5Z"/>
    <path class="cls-2" d="M717.47,349.18c-12.87-3.72-25.41-6.35-38.91-5.96-36.22,1.03-70.57,27.66-64.53,67.27-38.58,12.29-73.35,25.44-99.52,57.26-22.18,26.96-31.08,60.97-27.16,96,1.43,12.83,1.56,15.48,5.57,27.61,6.22,18.82,14.5,35.79,26.53,51.27,3.18,4.09,5.48,7.57,10.12,4.96,3.49-1.97,6.39-6.98,3.4-11-24.91-33.54-39.78-67.83-31.62-111.59,11.09-59.46,66.92-88.64,119.97-101.91,24.53,20.32,58.84,11.6,79.69-11.38,13.28-14.63,20.78-33.48,22.85-53.45.48-4.61-2.48-7.95-6.39-9.08ZM689.25,410.03c-15.5,11.39-34.88,16.45-53.59,6.56l40.41-24.97c2.63-1.63,4.03-3.92,3-6.81-.72-2.02-3.51-4.16-6.42-2.93-15.2,6.44-28.27,15.63-44.03,23.78-2.1-15.06,5.76-29.46,17.87-38.1,20.31-14.48,45.33-13.61,68.99-7.16-3.74,19.67-12.01,37.01-26.23,49.63Z"/>
    <path class="cls-2" d="M600.18,275.61c-1.78-3.88-6.04-6.31-9.99-5.08-11.03,3.4-20.84,8.02-30.56,14.03-17.22,12.17-29.13,30.6-30.78,52.12-1.32,17.24,4.5,32.68,16.87,44.49-10.4,24.29-26.32,45.68-48.56,59.6-28.06,17.57-65.8,25.14-98.64,26.86-17.37-27.71-51.69-33.45-79.18-17.54-18.44,10.67-32.2,28.05-41.34,47.56-1.97,4.21-.31,9.94,3.29,12.3,15.76,10.38,33.17,16.83,51.84,18.62,31.23,2.59,61.21-14.73,66.19-47.54,71.84-5.29,125.7-24.39,157.94-93.35,17.53.67,32.53-7.9,42.63-22.01,18.01-25.16,12.6-63.19.29-90.06ZM348.64,514.46c-21.68,4.7-44.08-1.36-63.24-13.1,14.67-29.79,38.82-52.64,73.11-46.24,8.96,2.4,17.59,5.87,23.55,14.25l-52.69,13.32c-2.62.67-4.01,3.57-3.78,5.4.33,2.62,2.64,4.52,5.77,4.31l52.35-11.44c-2.99,17.79-17.73,29.73-35.07,33.5ZM599.24,342.75c-4.53,16.27-16,29.82-33.85,32.19l14.44-46.19c1.03-3.29-.48-6.44-3.64-7.4-2.84-.86-5.76,1.47-7,5.01-5.19,14.83-9.47,29.39-16.19,44.09-6.7-5.6-9.68-13.06-11.03-21.54-5.02-31.47,19.44-57.16,50.42-64.83,8.3,18.54,12.28,39.15,6.85,58.67Z"/>
    <path class="cls-2" d="M531.58,236.23c-6.25-9.25-13.97-16.43-22.28-23.56-3.26-2.79-7.48-2.59-10.9.04-24.4,23.24-39.68,44.87-30.73,81.94-13.44-12.38-28.21-19.08-44.56-24.31-3.72-1.18-7.25-2.06-10.83-.06-2.66,1.49-4.07,4.9-5.25,8.64-5.46,17.42-8.87,34.72-6.44,52.77,4.2,31.29,29.15,53.55,59.9,52.15,3.96,4.43,13.11,19.38,19.8,12.09,6.13-6.71-4.87-12.72-8.6-19.45,15-16.47,17.87-39.41,10.16-59.54,7.61,4.36,12.69,7.92,20.4,9.43,2.33,29.08-1.16,67.83-26.91,85.46-24.23,16.61-54.89,13.78-80.35-1.77,9.11-36.96-23.4-63.45-54.74-68.21-15.71-2.39-31.02-.1-46.15,4.65-6.37,2-9.48,7.68-7.69,14.53,3.64,23.72,14.49,45.73,33.44,59.66,20.85,15.33,47.21,16.38,67.89,1.36,36.56,20.64,85.11,20.12,111.57-16.27,17.09-26.74,16.24-51.25,15.81-82.1,31.85-18.84,35.62-59.08,16.46-87.45ZM380.65,403.81l-44.3-25.24c-2.22-1.26-5.27-.38-6.37,1.3-.87,1.32-1.57,4.88.83,6.57,14.31,10.05,29.06,17.81,42.52,28.41-13.42,7.52-28.53,6.83-41.75.52-21.6-10.32-34.14-31.7-38.05-56.73,20.85-6.71,44.22-7.33,63.41,3.12,15.76,8.59,25.91,23.92,23.71,42.05ZM463.76,365.8l-20.36-43.56c-1.37-2.92-4.21-4.07-6.58-3.27-3.19,1.08-4.3,4.45-2.75,8.15l18.25,43.52c-13.24.14-24.27-6.35-31.71-16.17-15.64-20.65-12.23-48.22-4.05-72.08,13.38,3.41,24.94,8.78,35.44,16.67,20.44,15.35,28.48,45.47,11.76,66.74ZM513.1,310.85l-3.36-40.25c-.25-2.93-3.22-4.52-5.45-4.66-1.96-.12-5.61,1.4-5.48,5.02l1.56,42.17c-11.65-4.03-18.8-13.47-22.08-24.33-7.83-25.85,5.18-48.32,25.42-64.77,13.98,11.28,24.92,25.39,27.15,42.95,2.17,17.04-3.2,34.21-17.76,43.87Z"/>
    <ellipse class="cls-6" cx="365.3" cy="303.21" rx="17.7" ry="18.12"/>
    <ellipse class="cls-5" cx="319.65" cy="561.75" rx="17.51" ry="17.93"/>
    <path class="cls-4" d="M708.04,562.65c0,9.89-7.83,17.91-17.5,17.91s-17.49-8.02-17.49-17.91,7.83-17.91,17.49-17.91,17.5,8.02,17.5,17.91Z"/>
    <path class="cls-2" d="M876.61,593.62c-13.26,54.99-39.92,105.44-75.72,148.84-65.69,79.63-157.31,126.27-256.76,143.73-6.93,1.22-14.53-1.65-17.49-7.92-3.33-7.05,1.97-14.38,9.11-16.31,24.53-6.63,48.41-13.6,71.88-23.53,1.53-.65,1.97-2.3,1.84-3.13-.25-1.47-1.65-3.13-4.04-2.2-36.51,14.05-73.65,24.8-112.32,29.02-7.64.83-15.04-.82-18.96-7.39-2.13-3.56-2.71-7.57-1.1-11.89,1.07-2.86,4.48-5.6,9-6.59,37.19-8.17,73.39-17.77,109.12-30.81,1.89-.69,2.4-2.52,2.32-3.53-.09-1.14-1.65-3.23-3.8-2.49-44.65,15.23-89.72,27.89-136.33,34.31-8.3,1.15-15.74-2.72-18.16-9.35-2.66-7.31.64-16.19,8.37-19.43,13.25-5.56,26.92-7.94,41.09-11.34,29.45-7.05,57.89-15.06,86.6-24.29,1.81-.58,2.16-3.42,1.78-4.4-.39-.98-1.97-2.51-3.95-1.85-34.27,11.26-68.6,20.38-104.09,27.58-6.83,1.38-13.31-1.68-16.47-6.83-3.58-5.83-3.01-13.64,1.65-18.94,4.56-5.19,10.6-7.42,17.38-8.93,37.13-8.31,98.8-22.56,129.87-45.4l-41.43-.05c-7.62-.01-14.9-2.01-20.91-6.75-5.69-4.51-8.05-11.23-6.08-18.87,1.29-5.02,7.09-11.25,14.34-11.08,52.02,1.18,103.3-9.59,149.3-33.47,89.39-46.4,137.47-147.77,115.32-248.26-5.72-25.91-17.03-49.24-30.67-71.98-30.43-50.72-73.7-90.41-126.97-114.49-138.89-62.79-317.45-29.43-398.81,110.32-29.64,50.9-33.55,107.85-19.31,164.45,2.26,8.98,2.13,16.55-2.21,24.89l-47.96,92.15c-1.44,2.76-2.77,5.32-2.13,7.96,3.52,14.51,39.06,4.57,49.94,21.22,10.02,15.33-.77,29.49,6.73,45.21,4.01,8.4,5.38,17.26,5.82,26.64l1.87,40.03c.83,17.7,12.73,30.71,29.69,34.01,24.28,4.73,40.81-.33,64.47,1.7,34.08,2.93,52.13,28.69,61.91,59.7,6.24,19.8,11.55,39.9,13.4,60.54.68,7.5-5.38,13.4-10.82,13.99-6.91.76-12.17-4.05-13.35-11.34-4.27-26.36-9.05-58.93-24.15-80.53-23.57-33.71-58.27-6.26-105.49-21.85-54.38-17.95-34.21-87.57-42.05-106.1-5.33-12.59-10.02-23.94-7.13-38.3,3.12-15.43-18.12-10.42-38.73-21.48-13.81-7.41-20.05-22.51-13.6-37.29,4.49-10.29,9.97-19.69,15.52-29.63l34.33-61.61c2.96-5.32,2.63-9.96,1.31-15.61-18.13-77.09-7.35-149.1,41.6-211.88,65.62-84.17,172.04-119.71,275.01-116.6,87.14,2.62,171.64,34.07,238.24,90.95,98.52,84.15,142.98,218.65,112.18,346.48Z"/>
  </g>
</svg>